<?xml version="1.0" encoding="utf-8"?>
<!-- Generator: Adobe Illustrator 18.1.1, SVG Export Plug-In . SVG Version: 6.00 Build 0)  -->
<svg version="1.1" xmlns="http://www.w3.org/2000/svg" xmlns:xlink="http://www.w3.org/1999/xlink" x="0px" y="0px"
	 viewBox="0 0 1080 1920" enable-background="new 0 0 1080 1920" xml:space="preserve">
<g id="Layer_2">
	<rect fill="#409CD6" width="1080" height="1920"/>
</g>
<g id="Layer_1">
	<path fill="#2382C5" d="M496,928.3c0,31.1-9.5,62.1-28.5,88.3l-219.9,219.9c-7.7,7.7-14.8,15.7-21.5,24l-56.7,56.7
		c-45.6,45.6-113.9,55.6-169.4,29.9v-284.7l240.1-240.1c58.3-58.3,153.8-58.3,212.1,0C481.4,851.4,496,889.9,496,928.3z"/>
	<path fill="#2382C5" d="M234.9,707.7c0,38.5-14.6,76.9-43.8,106.1L0,1004.9V584.1c58.3-40.1,139.3-34.3,191.1,17.5
		C220.3,630.8,234.9,669.2,234.9,707.7z"/>
	<polygon fill="#2382C5" points="205.3,0 0,205.3 0,0 	"/>
	<path fill="#2382C5" d="M955.2,0c-9.3,14.8-20.4,28.7-33.3,41.5L465.6,497.9c-94.1,94.1-248.2,94.1-342.3,0
		c-94.1-94.1-94.1-248.1,0-342.3L278.9,0H955.2z"/>
	<path fill="#2382C5" d="M1080,0v354.6l-66.4,66.4c-58.3,58.3-153.8,58.3-212.1,0c-58.3-58.3-58.3-153.8,0-212.1L1010.3,0H1080z"/>
	<path fill="#2382C5" d="M1080,638.6v565.3l-432.6,432.6c-110,110-289.9,110-399.9,0c-102.3-102.3-109.4-265.1-21.5-375.9
		l226.2-226.2c5.6-5.6,10.7-11.6,15.2-17.8l313.3-313.3C861.3,622.8,979.4,601.2,1080,638.6z"/>
	<path fill="#2382C5" d="M247.5,1236.5l219.9-219.9c-4.5,6.2-9.6,12.2-15.2,17.8l-226.2,226.2
		C232.7,1252.3,239.8,1244.2,247.5,1236.5z"/>
	<path fill="#2382C5" d="M467.4,1016.6c-4.5,6.2-9.6,12.2-15.2,17.8l-226.2,226.2c6.6-8.3,13.8-16.3,21.5-24L467.4,1016.6z"/>
	<path fill="#F6F6F6" d="M984.4,944.8H95.6c-52.8,0-95.6,42.8-95.6,95.6V1790h1080v-749.6C1080,987.6,1037.2,944.8,984.4,944.8z"/>
	<rect y="1790" fill="#FFFFFF" width="1080" height="130"/>
	<circle fill="#409CD6" cx="540" cy="1845" r="75"/>
</g>
</svg>
